<mxfile host="app.diagrams.net" agent="Mozilla/5.0 (Windows NT 10.0; Win64; x64) AppleWebKit/537.36 (KHTML, like Gecko) Chrome/130.0.0.0 Safari/537.36" version="24.8.6">
  <diagram name="Page-1" id="Cl7Kuz0uFMpuwtS_qHQT">
    <mxGraphModel dx="1306" dy="813" grid="1" gridSize="10" guides="1" tooltips="1" connect="1" arrows="1" fold="1" page="1" pageScale="1" pageWidth="850" pageHeight="1100" math="0" shadow="0">
      <root>
        <mxCell id="0" />
        <mxCell id="1" parent="0" />
        <mxCell id="qGLKlDloHyobu2cCj2rJ-33" value="1" style="edgeStyle=orthogonalEdgeStyle;rounded=0;orthogonalLoop=1;jettySize=auto;html=1;exitX=0.5;exitY=0;exitDx=0;exitDy=0;entryX=0;entryY=0.5;entryDx=0;entryDy=0;endArrow=none;endFill=0;" edge="1" parent="1" source="6LO1feVvPPEJGngdXPjL-1" target="qGLKlDloHyobu2cCj2rJ-32">
          <mxGeometry relative="1" as="geometry" />
        </mxCell>
        <mxCell id="6LO1feVvPPEJGngdXPjL-1" value="clients" style="rounded=0;whiteSpace=wrap;html=1;" parent="1" vertex="1">
          <mxGeometry x="110" y="140" width="120" height="60" as="geometry" />
        </mxCell>
        <mxCell id="qGLKlDloHyobu2cCj2rJ-14" style="edgeStyle=orthogonalEdgeStyle;rounded=0;orthogonalLoop=1;jettySize=auto;html=1;exitX=0.5;exitY=0;exitDx=0;exitDy=0;entryX=0.5;entryY=1;entryDx=0;entryDy=0;endArrow=none;endFill=0;" edge="1" parent="1" source="qGLKlDloHyobu2cCj2rJ-1" target="6LO1feVvPPEJGngdXPjL-1">
          <mxGeometry relative="1" as="geometry" />
        </mxCell>
        <mxCell id="qGLKlDloHyobu2cCj2rJ-1" value="id" style="ellipse;whiteSpace=wrap;html=1;" vertex="1" parent="1">
          <mxGeometry x="10" y="240" width="30" height="50" as="geometry" />
        </mxCell>
        <mxCell id="qGLKlDloHyobu2cCj2rJ-15" style="edgeStyle=orthogonalEdgeStyle;rounded=0;orthogonalLoop=1;jettySize=auto;html=1;exitX=0.5;exitY=0;exitDx=0;exitDy=0;entryX=0.5;entryY=1;entryDx=0;entryDy=0;endArrow=none;endFill=0;" edge="1" parent="1" source="qGLKlDloHyobu2cCj2rJ-2" target="6LO1feVvPPEJGngdXPjL-1">
          <mxGeometry relative="1" as="geometry" />
        </mxCell>
        <mxCell id="qGLKlDloHyobu2cCj2rJ-2" value="title" style="ellipse;whiteSpace=wrap;html=1;" vertex="1" parent="1">
          <mxGeometry x="50" y="240" width="30" height="50" as="geometry" />
        </mxCell>
        <mxCell id="qGLKlDloHyobu2cCj2rJ-16" style="edgeStyle=orthogonalEdgeStyle;rounded=0;orthogonalLoop=1;jettySize=auto;html=1;exitX=0.5;exitY=0;exitDx=0;exitDy=0;endArrow=none;endFill=0;" edge="1" parent="1" source="qGLKlDloHyobu2cCj2rJ-3">
          <mxGeometry relative="1" as="geometry">
            <mxPoint x="170" y="200" as="targetPoint" />
          </mxGeometry>
        </mxCell>
        <mxCell id="qGLKlDloHyobu2cCj2rJ-3" value="registrationCode" style="ellipse;whiteSpace=wrap;html=1;" vertex="1" parent="1">
          <mxGeometry x="90" y="240" width="100" height="50" as="geometry" />
        </mxCell>
        <mxCell id="qGLKlDloHyobu2cCj2rJ-17" style="edgeStyle=orthogonalEdgeStyle;rounded=0;orthogonalLoop=1;jettySize=auto;html=1;exitX=0.5;exitY=0;exitDx=0;exitDy=0;endArrow=none;endFill=0;" edge="1" parent="1" source="qGLKlDloHyobu2cCj2rJ-4">
          <mxGeometry relative="1" as="geometry">
            <mxPoint x="170" y="200" as="targetPoint" />
          </mxGeometry>
        </mxCell>
        <mxCell id="qGLKlDloHyobu2cCj2rJ-4" value="vat" style="ellipse;whiteSpace=wrap;html=1;" vertex="1" parent="1">
          <mxGeometry x="200" y="240" width="30" height="50" as="geometry" />
        </mxCell>
        <mxCell id="qGLKlDloHyobu2cCj2rJ-18" style="edgeStyle=orthogonalEdgeStyle;rounded=0;orthogonalLoop=1;jettySize=auto;html=1;exitX=0.5;exitY=0;exitDx=0;exitDy=0;entryX=0.5;entryY=1;entryDx=0;entryDy=0;endArrow=none;endFill=0;" edge="1" parent="1" source="qGLKlDloHyobu2cCj2rJ-5" target="6LO1feVvPPEJGngdXPjL-1">
          <mxGeometry relative="1" as="geometry" />
        </mxCell>
        <mxCell id="qGLKlDloHyobu2cCj2rJ-5" value="address" style="ellipse;whiteSpace=wrap;html=1;" vertex="1" parent="1">
          <mxGeometry x="240" y="240" width="60" height="50" as="geometry" />
        </mxCell>
        <mxCell id="qGLKlDloHyobu2cCj2rJ-19" style="edgeStyle=orthogonalEdgeStyle;rounded=0;orthogonalLoop=1;jettySize=auto;html=1;exitX=0.5;exitY=0;exitDx=0;exitDy=0;entryX=0.5;entryY=1;entryDx=0;entryDy=0;endArrow=none;endFill=0;" edge="1" parent="1" source="qGLKlDloHyobu2cCj2rJ-7" target="6LO1feVvPPEJGngdXPjL-1">
          <mxGeometry relative="1" as="geometry" />
        </mxCell>
        <mxCell id="qGLKlDloHyobu2cCj2rJ-7" value="email&lt;span style=&quot;color: rgba(0, 0, 0, 0); font-family: monospace; font-size: 0px; text-align: start; text-wrap-mode: nowrap;&quot;&gt;%3CmxGraphModel%3E%3Croot%3E%3CmxCell%20id%3D%220%22%2F%3E%3CmxCell%20id%3D%221%22%20parent%3D%220%22%2F%3E%3CmxCell%20id%3D%222%22%20value%3D%22address%22%20style%3D%22ellipse%3BwhiteSpace%3Dwrap%3Bhtml%3D1%3B%22%20vertex%3D%221%22%20parent%3D%221%22%3E%3CmxGeometry%20x%3D%22240%22%20y%3D%22240%22%20width%3D%2260%22%20height%3D%2250%22%20as%3D%22geometry%22%2F%3E%3C%2FmxCell%3E%3C%2Froot%3E%3C%2FmxGraphModel%3E&lt;/span&gt;" style="ellipse;whiteSpace=wrap;html=1;" vertex="1" parent="1">
          <mxGeometry x="310" y="240" width="50" height="50" as="geometry" />
        </mxCell>
        <mxCell id="qGLKlDloHyobu2cCj2rJ-20" style="edgeStyle=orthogonalEdgeStyle;rounded=0;orthogonalLoop=1;jettySize=auto;html=1;exitX=0.5;exitY=0;exitDx=0;exitDy=0;entryX=0.5;entryY=1;entryDx=0;entryDy=0;endArrow=none;endFill=0;" edge="1" parent="1" source="qGLKlDloHyobu2cCj2rJ-8" target="6LO1feVvPPEJGngdXPjL-1">
          <mxGeometry relative="1" as="geometry" />
        </mxCell>
        <mxCell id="qGLKlDloHyobu2cCj2rJ-8" value="phoneNumber" style="ellipse;whiteSpace=wrap;html=1;" vertex="1" parent="1">
          <mxGeometry x="370" y="240" width="90" height="50" as="geometry" />
        </mxCell>
        <mxCell id="qGLKlDloHyobu2cCj2rJ-21" style="edgeStyle=orthogonalEdgeStyle;rounded=0;orthogonalLoop=1;jettySize=auto;html=1;exitX=0.5;exitY=0;exitDx=0;exitDy=0;entryX=0.5;entryY=1;entryDx=0;entryDy=0;endArrow=none;endFill=0;" edge="1" parent="1" source="qGLKlDloHyobu2cCj2rJ-10" target="qGLKlDloHyobu2cCj2rJ-5">
          <mxGeometry relative="1" as="geometry" />
        </mxCell>
        <mxCell id="qGLKlDloHyobu2cCj2rJ-10" value="street&lt;span style=&quot;color: rgba(0, 0, 0, 0); font-family: monospace; font-size: 0px; text-align: start; text-wrap-mode: nowrap;&quot;&gt;%3CmxGraphModel%3E%3Croot%3E%3CmxCell%20id%3D%220%22%2F%3E%3CmxCell%20id%3D%221%22%20parent%3D%220%22%2F%3E%3CmxCell%20id%3D%222%22%20value%3D%22address%22%20style%3D%22ellipse%3BwhiteSpace%3Dwrap%3Bhtml%3D1%3B%22%20vertex%3D%221%22%20parent%3D%221%22%3E%3CmxGeometry%20x%3D%22240%22%20y%3D%22240%22%20width%3D%2260%22%20height%3D%2250%22%20as%3D%22geometry%22%2F%3E%3C%2FmxCell%3E%3C%2Froot%3E%3C%2FmxGraphModel%3E&lt;/span&gt;&lt;span style=&quot;color: rgba(0, 0, 0, 0); font-family: monospace; font-size: 0px; text-align: start; text-wrap-mode: nowrap;&quot;&gt;%3CmxGraphModel%3E%3Croot%3E%3CmxCell%20id%3D%220%22%2F%3E%3CmxCell%20id%3D%221%22%20parent%3D%220%22%2F%3E%3CmxCell%20id%3D%222%22%20value%3D%22address%22%20style%3D%22ellipse%3BwhiteSpace%3Dwrap%3Bhtml%3D1%3B%22%20vertex%3D%221%22%20parent%3D%221%22%3E%3CmxGeometry%20x%3D%22240%22%20y%3D%22240%22%20width%3D%2260%22%20height%3D%2250%22%20as%3D%22geometry%22%2F%3E%3C%2FmxCell%3E%3C%2Froot%3E%3C%2FmxGraphModel%3E&lt;/span&gt;" style="ellipse;whiteSpace=wrap;html=1;" vertex="1" parent="1">
          <mxGeometry x="195" y="330" width="45" height="50" as="geometry" />
        </mxCell>
        <mxCell id="qGLKlDloHyobu2cCj2rJ-22" style="edgeStyle=orthogonalEdgeStyle;rounded=0;orthogonalLoop=1;jettySize=auto;html=1;exitX=0.5;exitY=0;exitDx=0;exitDy=0;entryX=0.5;entryY=1;entryDx=0;entryDy=0;endArrow=none;endFill=0;" edge="1" parent="1" source="qGLKlDloHyobu2cCj2rJ-11" target="qGLKlDloHyobu2cCj2rJ-5">
          <mxGeometry relative="1" as="geometry" />
        </mxCell>
        <mxCell id="qGLKlDloHyobu2cCj2rJ-11" value="city" style="ellipse;whiteSpace=wrap;html=1;" vertex="1" parent="1">
          <mxGeometry x="253.75" y="330" width="32.5" height="50" as="geometry" />
        </mxCell>
        <mxCell id="qGLKlDloHyobu2cCj2rJ-23" style="edgeStyle=orthogonalEdgeStyle;rounded=0;orthogonalLoop=1;jettySize=auto;html=1;exitX=0.5;exitY=0;exitDx=0;exitDy=0;endArrow=none;endFill=0;" edge="1" parent="1" source="qGLKlDloHyobu2cCj2rJ-12">
          <mxGeometry relative="1" as="geometry">
            <mxPoint x="270" y="290" as="targetPoint" />
          </mxGeometry>
        </mxCell>
        <mxCell id="qGLKlDloHyobu2cCj2rJ-12" value="zipCode" style="ellipse;whiteSpace=wrap;html=1;" vertex="1" parent="1">
          <mxGeometry x="305" y="330" width="60" height="50" as="geometry" />
        </mxCell>
        <mxCell id="qGLKlDloHyobu2cCj2rJ-52" value="1" style="edgeStyle=orthogonalEdgeStyle;rounded=0;orthogonalLoop=1;jettySize=auto;html=1;exitX=0;exitY=0.75;exitDx=0;exitDy=0;entryX=0;entryY=0.5;entryDx=0;entryDy=0;endArrow=none;endFill=0;" edge="1" parent="1" source="qGLKlDloHyobu2cCj2rJ-24" target="qGLKlDloHyobu2cCj2rJ-51">
          <mxGeometry relative="1" as="geometry" />
        </mxCell>
        <mxCell id="qGLKlDloHyobu2cCj2rJ-24" value="invoices" style="rounded=0;whiteSpace=wrap;html=1;" vertex="1" parent="1">
          <mxGeometry x="570" y="280" width="120" height="60" as="geometry" />
        </mxCell>
        <mxCell id="qGLKlDloHyobu2cCj2rJ-36" style="edgeStyle=orthogonalEdgeStyle;rounded=0;orthogonalLoop=1;jettySize=auto;html=1;exitX=0.5;exitY=0;exitDx=0;exitDy=0;endArrow=none;endFill=0;" edge="1" parent="1" source="qGLKlDloHyobu2cCj2rJ-25">
          <mxGeometry relative="1" as="geometry">
            <mxPoint x="630" y="340" as="targetPoint" />
          </mxGeometry>
        </mxCell>
        <mxCell id="qGLKlDloHyobu2cCj2rJ-25" value="id" style="ellipse;whiteSpace=wrap;html=1;" vertex="1" parent="1">
          <mxGeometry x="440" y="380" width="20" height="50" as="geometry" />
        </mxCell>
        <mxCell id="qGLKlDloHyobu2cCj2rJ-35" style="edgeStyle=orthogonalEdgeStyle;rounded=0;orthogonalLoop=1;jettySize=auto;html=1;exitX=0.5;exitY=0;exitDx=0;exitDy=0;entryX=0.5;entryY=1;entryDx=0;entryDy=0;endArrow=none;endFill=0;" edge="1" parent="1" source="qGLKlDloHyobu2cCj2rJ-26" target="qGLKlDloHyobu2cCj2rJ-24">
          <mxGeometry relative="1" as="geometry" />
        </mxCell>
        <mxCell id="qGLKlDloHyobu2cCj2rJ-26" value="title" style="ellipse;whiteSpace=wrap;html=1;" vertex="1" parent="1">
          <mxGeometry x="470" y="380" width="30" height="50" as="geometry" />
        </mxCell>
        <mxCell id="qGLKlDloHyobu2cCj2rJ-37" style="edgeStyle=orthogonalEdgeStyle;rounded=0;orthogonalLoop=1;jettySize=auto;html=1;exitX=0.5;exitY=0;exitDx=0;exitDy=0;endArrow=none;endFill=0;" edge="1" parent="1" source="qGLKlDloHyobu2cCj2rJ-27">
          <mxGeometry relative="1" as="geometry">
            <mxPoint x="630" y="340" as="targetPoint" />
          </mxGeometry>
        </mxCell>
        <mxCell id="qGLKlDloHyobu2cCj2rJ-27" value="markup" style="ellipse;whiteSpace=wrap;html=1;" vertex="1" parent="1">
          <mxGeometry x="510" y="380" width="50" height="50" as="geometry" />
        </mxCell>
        <mxCell id="qGLKlDloHyobu2cCj2rJ-38" style="edgeStyle=orthogonalEdgeStyle;rounded=0;orthogonalLoop=1;jettySize=auto;html=1;exitX=0.5;exitY=0;exitDx=0;exitDy=0;endArrow=none;endFill=0;" edge="1" parent="1" source="qGLKlDloHyobu2cCj2rJ-28">
          <mxGeometry relative="1" as="geometry">
            <mxPoint x="630" y="340" as="targetPoint" />
          </mxGeometry>
        </mxCell>
        <mxCell id="qGLKlDloHyobu2cCj2rJ-28" value="discount&lt;span style=&quot;color: rgba(0, 0, 0, 0); font-family: monospace; font-size: 0px; text-align: start; text-wrap-mode: nowrap;&quot;&gt;%3CmxGraphModel%3E%3Croot%3E%3CmxCell%20id%3D%220%22%2F%3E%3CmxCell%20id%3D%221%22%20parent%3D%220%22%2F%3E%3CmxCell%20id%3D%222%22%20value%3D%22markup%22%20style%3D%22ellipse%3BwhiteSpace%3Dwrap%3Bhtml%3D1%3B%22%20vertex%3D%221%22%20parent%3D%221%22%3E%3CmxGeometry%20x%3D%22600%22%20y%3D%22130%22%20width%3D%2250%22%20height%3D%2250%22%20as%3D%22geometry%22%2F%3E%3C%2FmxCell%3E%3C%2Froot%3E%3C%2FmxGraphModel%3E&lt;/span&gt;&lt;span style=&quot;color: rgba(0, 0, 0, 0); font-family: monospace; font-size: 0px; text-align: start; text-wrap-mode: nowrap;&quot;&gt;%3CmxGraphModel%3E%3Croot%3E%3CmxCell%20id%3D%220%22%2F%3E%3CmxCell%20id%3D%221%22%20parent%3D%220%22%2F%3E%3CmxCell%20id%3D%222%22%20value%3D%22markup%22%20style%3D%22ellipse%3BwhiteSpace%3Dwrap%3Bhtml%3D1%3B%22%20vertex%3D%221%22%20parent%3D%221%22%3E%3CmxGeometry%20x%3D%22600%22%20y%3D%22130%22%20width%3D%2250%22%20height%3D%2250%22%20as%3D%22geometry%22%2F%3E%3C%2FmxCell%3E%3C%2Froot%3E%3C%2FmxGraphModel%3E&lt;/span&gt;&lt;span style=&quot;color: rgba(0, 0, 0, 0); font-family: monospace; font-size: 0px; text-align: start; text-wrap-mode: nowrap;&quot;&gt;%3CmxGraphModel%3E%3Croot%3E%3CmxCell%20id%3D%220%22%2F%3E%3CmxCell%20id%3D%221%22%20parent%3D%220%22%2F%3E%3CmxCell%20id%3D%222%22%20value%3D%22markup%22%20style%3D%22ellipse%3BwhiteSpace%3Dwrap%3Bhtml%3D1%3B%22%20vertex%3D%221%22%20parent%3D%221%22%3E%3CmxGeometry%20x%3D%22600%22%20y%3D%22130%22%20width%3D%2250%22%20height%3D%2250%22%20as%3D%22geometry%22%2F%3E%3C%2FmxCell%3E%3C%2Froot%3E%3C%2FmxGraphModel%3E&lt;/span&gt;" style="ellipse;whiteSpace=wrap;html=1;" vertex="1" parent="1">
          <mxGeometry x="570" y="380" width="50" height="50" as="geometry" />
        </mxCell>
        <mxCell id="qGLKlDloHyobu2cCj2rJ-39" style="edgeStyle=orthogonalEdgeStyle;rounded=0;orthogonalLoop=1;jettySize=auto;html=1;exitX=0.5;exitY=0;exitDx=0;exitDy=0;endArrow=none;endFill=0;" edge="1" parent="1" source="qGLKlDloHyobu2cCj2rJ-29">
          <mxGeometry relative="1" as="geometry">
            <mxPoint x="630" y="340" as="targetPoint" />
          </mxGeometry>
        </mxCell>
        <mxCell id="qGLKlDloHyobu2cCj2rJ-29" value="notes" style="ellipse;whiteSpace=wrap;html=1;" vertex="1" parent="1">
          <mxGeometry x="630" y="380" width="50" height="50" as="geometry" />
        </mxCell>
        <mxCell id="qGLKlDloHyobu2cCj2rJ-40" style="edgeStyle=orthogonalEdgeStyle;rounded=0;orthogonalLoop=1;jettySize=auto;html=1;exitX=0.5;exitY=0;exitDx=0;exitDy=0;endArrow=none;endFill=0;" edge="1" parent="1" source="qGLKlDloHyobu2cCj2rJ-30">
          <mxGeometry relative="1" as="geometry">
            <mxPoint x="630" y="340" as="targetPoint" />
          </mxGeometry>
        </mxCell>
        <mxCell id="qGLKlDloHyobu2cCj2rJ-30" value="created_at" style="ellipse;whiteSpace=wrap;html=1;" vertex="1" parent="1">
          <mxGeometry x="690" y="380" width="70" height="50" as="geometry" />
        </mxCell>
        <mxCell id="qGLKlDloHyobu2cCj2rJ-34" value="N" style="edgeStyle=orthogonalEdgeStyle;rounded=0;orthogonalLoop=1;jettySize=auto;html=1;exitX=1;exitY=0.5;exitDx=0;exitDy=0;entryX=0;entryY=0.5;entryDx=0;entryDy=0;endArrow=none;endFill=0;" edge="1" parent="1" source="qGLKlDloHyobu2cCj2rJ-32" target="qGLKlDloHyobu2cCj2rJ-24">
          <mxGeometry relative="1" as="geometry" />
        </mxCell>
        <mxCell id="qGLKlDloHyobu2cCj2rJ-32" value="clientInvoices" style="rhombus;whiteSpace=wrap;html=1;" vertex="1" parent="1">
          <mxGeometry x="300" y="20" width="150" height="80" as="geometry" />
        </mxCell>
        <mxCell id="qGLKlDloHyobu2cCj2rJ-41" value="invoiceProducts" style="rounded=0;whiteSpace=wrap;html=1;" vertex="1" parent="1">
          <mxGeometry x="660" y="610" width="120" height="60" as="geometry" />
        </mxCell>
        <mxCell id="qGLKlDloHyobu2cCj2rJ-47" style="edgeStyle=orthogonalEdgeStyle;rounded=0;orthogonalLoop=1;jettySize=auto;html=1;exitX=0.5;exitY=0;exitDx=0;exitDy=0;entryX=0.5;entryY=1;entryDx=0;entryDy=0;endArrow=none;endFill=0;" edge="1" parent="1" source="qGLKlDloHyobu2cCj2rJ-42" target="qGLKlDloHyobu2cCj2rJ-41">
          <mxGeometry relative="1" as="geometry" />
        </mxCell>
        <mxCell id="qGLKlDloHyobu2cCj2rJ-42" value="id" style="ellipse;whiteSpace=wrap;html=1;" vertex="1" parent="1">
          <mxGeometry x="640" y="710" width="20" height="50" as="geometry" />
        </mxCell>
        <mxCell id="qGLKlDloHyobu2cCj2rJ-48" style="edgeStyle=orthogonalEdgeStyle;rounded=0;orthogonalLoop=1;jettySize=auto;html=1;exitX=0.5;exitY=0;exitDx=0;exitDy=0;entryX=0.5;entryY=1;entryDx=0;entryDy=0;endArrow=none;endFill=0;" edge="1" parent="1" source="qGLKlDloHyobu2cCj2rJ-44" target="qGLKlDloHyobu2cCj2rJ-41">
          <mxGeometry relative="1" as="geometry" />
        </mxCell>
        <mxCell id="qGLKlDloHyobu2cCj2rJ-44" value="title" style="ellipse;whiteSpace=wrap;html=1;" vertex="1" parent="1">
          <mxGeometry x="670" y="710" width="30" height="50" as="geometry" />
        </mxCell>
        <mxCell id="qGLKlDloHyobu2cCj2rJ-49" style="edgeStyle=orthogonalEdgeStyle;rounded=0;orthogonalLoop=1;jettySize=auto;html=1;exitX=0.5;exitY=0;exitDx=0;exitDy=0;endArrow=none;endFill=0;" edge="1" parent="1" source="qGLKlDloHyobu2cCj2rJ-45">
          <mxGeometry relative="1" as="geometry">
            <mxPoint x="720" y="670" as="targetPoint" />
          </mxGeometry>
        </mxCell>
        <mxCell id="qGLKlDloHyobu2cCj2rJ-45" value="price" style="ellipse;whiteSpace=wrap;html=1;" vertex="1" parent="1">
          <mxGeometry x="710" y="710" width="40" height="50" as="geometry" />
        </mxCell>
        <mxCell id="qGLKlDloHyobu2cCj2rJ-50" style="edgeStyle=orthogonalEdgeStyle;rounded=0;orthogonalLoop=1;jettySize=auto;html=1;exitX=0.5;exitY=0;exitDx=0;exitDy=0;endArrow=none;endFill=0;" edge="1" parent="1" source="qGLKlDloHyobu2cCj2rJ-46">
          <mxGeometry relative="1" as="geometry">
            <mxPoint x="720" y="670" as="targetPoint" />
          </mxGeometry>
        </mxCell>
        <mxCell id="qGLKlDloHyobu2cCj2rJ-46" value="quantity" style="ellipse;whiteSpace=wrap;html=1;" vertex="1" parent="1">
          <mxGeometry x="760" y="710" width="50" height="50" as="geometry" />
        </mxCell>
        <mxCell id="qGLKlDloHyobu2cCj2rJ-53" value="N" style="edgeStyle=orthogonalEdgeStyle;rounded=0;orthogonalLoop=1;jettySize=auto;html=1;exitX=0.5;exitY=1;exitDx=0;exitDy=0;entryX=0.5;entryY=0;entryDx=0;entryDy=0;endArrow=none;endFill=0;" edge="1" parent="1" source="qGLKlDloHyobu2cCj2rJ-51" target="qGLKlDloHyobu2cCj2rJ-41">
          <mxGeometry relative="1" as="geometry" />
        </mxCell>
        <mxCell id="qGLKlDloHyobu2cCj2rJ-51" value="invoiceProducts" style="rhombus;whiteSpace=wrap;html=1;" vertex="1" parent="1">
          <mxGeometry x="440" y="460" width="190" height="80" as="geometry" />
        </mxCell>
        <mxCell id="qGLKlDloHyobu2cCj2rJ-54" value="payments" style="rounded=0;whiteSpace=wrap;html=1;" vertex="1" parent="1">
          <mxGeometry x="690" y="70" width="120" height="60" as="geometry" />
        </mxCell>
        <mxCell id="qGLKlDloHyobu2cCj2rJ-59" style="edgeStyle=orthogonalEdgeStyle;rounded=0;orthogonalLoop=1;jettySize=auto;html=1;exitX=0.5;exitY=0;exitDx=0;exitDy=0;entryX=0.5;entryY=1;entryDx=0;entryDy=0;endArrow=none;endFill=0;" edge="1" parent="1" source="qGLKlDloHyobu2cCj2rJ-55" target="qGLKlDloHyobu2cCj2rJ-54">
          <mxGeometry relative="1" as="geometry" />
        </mxCell>
        <mxCell id="qGLKlDloHyobu2cCj2rJ-55" value="id" style="ellipse;whiteSpace=wrap;html=1;" vertex="1" parent="1">
          <mxGeometry x="660" y="170" width="20" height="50" as="geometry" />
        </mxCell>
        <mxCell id="qGLKlDloHyobu2cCj2rJ-60" style="edgeStyle=orthogonalEdgeStyle;rounded=0;orthogonalLoop=1;jettySize=auto;html=1;exitX=0.5;exitY=0;exitDx=0;exitDy=0;endArrow=none;endFill=0;" edge="1" parent="1" source="qGLKlDloHyobu2cCj2rJ-56">
          <mxGeometry relative="1" as="geometry">
            <mxPoint x="750" y="130" as="targetPoint" />
          </mxGeometry>
        </mxCell>
        <mxCell id="qGLKlDloHyobu2cCj2rJ-56" value="amount" style="ellipse;whiteSpace=wrap;html=1;" vertex="1" parent="1">
          <mxGeometry x="690" y="170" width="50" height="50" as="geometry" />
        </mxCell>
        <mxCell id="qGLKlDloHyobu2cCj2rJ-61" style="edgeStyle=orthogonalEdgeStyle;rounded=0;orthogonalLoop=1;jettySize=auto;html=1;exitX=0.5;exitY=0;exitDx=0;exitDy=0;endArrow=none;endFill=0;" edge="1" parent="1" source="qGLKlDloHyobu2cCj2rJ-57">
          <mxGeometry relative="1" as="geometry">
            <mxPoint x="750" y="130" as="targetPoint" />
          </mxGeometry>
        </mxCell>
        <mxCell id="qGLKlDloHyobu2cCj2rJ-57" value="method" style="ellipse;whiteSpace=wrap;html=1;" vertex="1" parent="1">
          <mxGeometry x="750" y="170" width="50" height="50" as="geometry" />
        </mxCell>
        <mxCell id="qGLKlDloHyobu2cCj2rJ-64" style="edgeStyle=orthogonalEdgeStyle;rounded=0;orthogonalLoop=1;jettySize=auto;html=1;exitX=0.5;exitY=0;exitDx=0;exitDy=0;entryX=0.5;entryY=1;entryDx=0;entryDy=0;endArrow=none;endFill=0;" edge="1" parent="1" source="qGLKlDloHyobu2cCj2rJ-58" target="qGLKlDloHyobu2cCj2rJ-54">
          <mxGeometry relative="1" as="geometry" />
        </mxCell>
        <mxCell id="qGLKlDloHyobu2cCj2rJ-58" value="date" style="ellipse;whiteSpace=wrap;html=1;" vertex="1" parent="1">
          <mxGeometry x="810" y="170" width="30" height="50" as="geometry" />
        </mxCell>
        <mxCell id="qGLKlDloHyobu2cCj2rJ-65" value="1" style="edgeStyle=orthogonalEdgeStyle;rounded=0;orthogonalLoop=1;jettySize=auto;html=1;exitX=1;exitY=0.5;exitDx=0;exitDy=0;entryX=0;entryY=0.5;entryDx=0;entryDy=0;endArrow=none;endFill=0;dashed=1;" edge="1" parent="1" source="qGLKlDloHyobu2cCj2rJ-63" target="qGLKlDloHyobu2cCj2rJ-54">
          <mxGeometry relative="1" as="geometry" />
        </mxCell>
        <mxCell id="qGLKlDloHyobu2cCj2rJ-66" value="1" style="edgeStyle=orthogonalEdgeStyle;rounded=0;orthogonalLoop=1;jettySize=auto;html=1;exitX=0.5;exitY=1;exitDx=0;exitDy=0;entryX=0.5;entryY=0;entryDx=0;entryDy=0;endArrow=none;endFill=0;dashed=1;" edge="1" parent="1" source="qGLKlDloHyobu2cCj2rJ-63" target="qGLKlDloHyobu2cCj2rJ-24">
          <mxGeometry relative="1" as="geometry" />
        </mxCell>
        <mxCell id="qGLKlDloHyobu2cCj2rJ-63" value="invoicePayments" style="rhombus;whiteSpace=wrap;html=1;" vertex="1" parent="1">
          <mxGeometry x="540" y="80" width="110" height="80" as="geometry" />
        </mxCell>
        <mxCell id="qGLKlDloHyobu2cCj2rJ-77" value="1" style="edgeStyle=orthogonalEdgeStyle;rounded=0;orthogonalLoop=1;jettySize=auto;html=1;exitX=0.5;exitY=0;exitDx=0;exitDy=0;entryX=0;entryY=0.5;entryDx=0;entryDy=0;dashed=1;endArrow=none;endFill=0;" edge="1" parent="1" source="qGLKlDloHyobu2cCj2rJ-67" target="qGLKlDloHyobu2cCj2rJ-76">
          <mxGeometry relative="1" as="geometry" />
        </mxCell>
        <mxCell id="qGLKlDloHyobu2cCj2rJ-67" value="products" style="rounded=0;whiteSpace=wrap;html=1;" vertex="1" parent="1">
          <mxGeometry x="60" y="620" width="120" height="60" as="geometry" />
        </mxCell>
        <mxCell id="qGLKlDloHyobu2cCj2rJ-68" style="edgeStyle=orthogonalEdgeStyle;rounded=0;orthogonalLoop=1;jettySize=auto;html=1;exitX=0.5;exitY=0;exitDx=0;exitDy=0;entryX=0.5;entryY=1;entryDx=0;entryDy=0;endArrow=none;endFill=0;" edge="1" parent="1" source="qGLKlDloHyobu2cCj2rJ-69" target="qGLKlDloHyobu2cCj2rJ-67">
          <mxGeometry relative="1" as="geometry" />
        </mxCell>
        <mxCell id="qGLKlDloHyobu2cCj2rJ-69" value="id" style="ellipse;whiteSpace=wrap;html=1;" vertex="1" parent="1">
          <mxGeometry x="40" y="720" width="20" height="50" as="geometry" />
        </mxCell>
        <mxCell id="qGLKlDloHyobu2cCj2rJ-70" style="edgeStyle=orthogonalEdgeStyle;rounded=0;orthogonalLoop=1;jettySize=auto;html=1;exitX=0.5;exitY=0;exitDx=0;exitDy=0;entryX=0.5;entryY=1;entryDx=0;entryDy=0;endArrow=none;endFill=0;" edge="1" parent="1" source="qGLKlDloHyobu2cCj2rJ-71" target="qGLKlDloHyobu2cCj2rJ-67">
          <mxGeometry relative="1" as="geometry" />
        </mxCell>
        <mxCell id="qGLKlDloHyobu2cCj2rJ-71" value="title" style="ellipse;whiteSpace=wrap;html=1;" vertex="1" parent="1">
          <mxGeometry x="70" y="720" width="30" height="50" as="geometry" />
        </mxCell>
        <mxCell id="qGLKlDloHyobu2cCj2rJ-72" style="edgeStyle=orthogonalEdgeStyle;rounded=0;orthogonalLoop=1;jettySize=auto;html=1;exitX=0.5;exitY=0;exitDx=0;exitDy=0;endArrow=none;endFill=0;" edge="1" parent="1" source="qGLKlDloHyobu2cCj2rJ-73">
          <mxGeometry relative="1" as="geometry">
            <mxPoint x="120" y="680" as="targetPoint" />
          </mxGeometry>
        </mxCell>
        <mxCell id="qGLKlDloHyobu2cCj2rJ-73" value="price" style="ellipse;whiteSpace=wrap;html=1;" vertex="1" parent="1">
          <mxGeometry x="110" y="720" width="40" height="50" as="geometry" />
        </mxCell>
        <mxCell id="qGLKlDloHyobu2cCj2rJ-74" style="edgeStyle=orthogonalEdgeStyle;rounded=0;orthogonalLoop=1;jettySize=auto;html=1;exitX=0.5;exitY=0;exitDx=0;exitDy=0;endArrow=none;endFill=0;" edge="1" parent="1" source="qGLKlDloHyobu2cCj2rJ-75">
          <mxGeometry relative="1" as="geometry">
            <mxPoint x="120" y="680" as="targetPoint" />
          </mxGeometry>
        </mxCell>
        <mxCell id="qGLKlDloHyobu2cCj2rJ-75" value="availableQuantity" style="ellipse;whiteSpace=wrap;html=1;" vertex="1" parent="1">
          <mxGeometry x="160" y="720" width="110" height="50" as="geometry" />
        </mxCell>
        <mxCell id="qGLKlDloHyobu2cCj2rJ-78" value="1" style="edgeStyle=orthogonalEdgeStyle;rounded=0;orthogonalLoop=1;jettySize=auto;html=1;exitX=1;exitY=0.5;exitDx=0;exitDy=0;entryX=0;entryY=0.5;entryDx=0;entryDy=0;endArrow=none;endFill=0;dashed=1;" edge="1" parent="1" source="qGLKlDloHyobu2cCj2rJ-76" target="qGLKlDloHyobu2cCj2rJ-41">
          <mxGeometry relative="1" as="geometry" />
        </mxCell>
        <mxCell id="qGLKlDloHyobu2cCj2rJ-76" value="productOrigin" style="rhombus;whiteSpace=wrap;html=1;" vertex="1" parent="1">
          <mxGeometry x="206.25" y="510" width="173.75" height="80" as="geometry" />
        </mxCell>
        <mxCell id="qGLKlDloHyobu2cCj2rJ-80" style="edgeStyle=orthogonalEdgeStyle;rounded=0;orthogonalLoop=1;jettySize=auto;html=1;exitX=0.5;exitY=0;exitDx=0;exitDy=0;entryX=0.5;entryY=1;entryDx=0;entryDy=0;endArrow=none;endFill=0;" edge="1" parent="1" source="qGLKlDloHyobu2cCj2rJ-79" target="qGLKlDloHyobu2cCj2rJ-24">
          <mxGeometry relative="1" as="geometry" />
        </mxCell>
        <mxCell id="qGLKlDloHyobu2cCj2rJ-79" value="amount" style="ellipse;whiteSpace=wrap;html=1;dashed=1;" vertex="1" parent="1">
          <mxGeometry x="770" y="380" width="70" height="50" as="geometry" />
        </mxCell>
      </root>
    </mxGraphModel>
  </diagram>
</mxfile>
